<?xml version="1.0" encoding="utf-8"?>
<!-- Generator: Adobe Illustrator 21.0.2, SVG Export Plug-In . SVG Version: 6.00 Build 0)  -->
<svg version="1.1" id="Layer_1" xmlns="http://www.w3.org/2000/svg" xmlns:xlink="http://www.w3.org/1999/xlink" x="0px" y="0px"
	 viewBox="0 0 512 512" style="enable-background:new 0 0 512 512;" xml:space="preserve">
<style type="text/css">
	.st0{fill:#BA0C2F;}
	.st1{fill:#FFFFFF;}
</style>
<rect class="st0" width="512" height="512"/>
<g>
	<path class="st1" d="M165.3,348.4c30.3,0,55.1,24.7,55.1,55.1s-24.7,55.1-55.1,55.1c-30.5,0-55.1-24.7-55.1-55.1
		S134.8,348.4,165.3,348.4z M165.3,366.8c-20.3,0-36.7,16.4-36.7,36.7c0,20.3,16.4,36.7,36.7,36.7c20.2,0,36.7-16.4,36.7-36.7
		C202,383.2,185.5,366.8,165.3,366.8z"/>
	<path class="st1" d="M252.1,458.6h-18.4V348.4H272c22.8,0,41.4,18.5,41.4,41.2c0,22.9-18.6,41.4-41.4,41.4h-19.8V458.6z M272,366.8
		h-19.8v45.9H272c12.7,0,23-10.3,23-23C295,377.1,284.7,366.8,272,366.8z"/>
	<path class="st1" d="M343.9,348.4v110.1h-18.4V348.4H343.9z"/>
	<path class="st1" d="M454.6,458.6h-21.4l-7.5-18.4h-40.1l-7.5,18.4h-21.4l48.9-110.1L454.6,458.6z M393.2,421.9h25l-12.5-30.6
		L393.2,421.9z"/>
</g>
</svg>
